<svg version="1" xmlns="http://www.w3.org/2000/svg" width="712" height="712" viewBox="0 0 534.000000 534.000000"><path d="M0 267v267h534V0H0v267zM200.8 21.1c.3 2.2-.7 3.1-8.7 7.8-11.2 6.6-21 15.5-28.1 25.5-5.6 7.9-8 9.1-10.3 5.5-.8-1.2 0-3 3-7.5 8.7-12.7 21.2-24.1 34.5-31.5 6.3-3.5 9.2-3.4 9.6.2zm65.1 31.2c2.8 1.4 3.4 2.6 2.3 4.5-.6.9-5.5 1.3-17.3 1.6-9.3.2-19.7 1.1-24 1.9-24.2 5-47.4 16.1-64.7 31.1-5.9 5.1-7.6 5.6-9.2 2.6-1.3-2.4-.7-3.5 3.3-7 23.1-19.7 49.3-31.2 81.2-35.3 7.5-1 26.1-.6 28.4.6zm-13.5 26.3c1.8.7 2.2 4.9.6 5.9-.5.3-5.5 1.3-11.1 2.1-16.1 2.4-39.5 11.1-50.1 18.5-1.4 1.1-3.5 1.9-4.6 1.9-2.9 0-3.8-3.6-1.6-6.1 2.3-2.6 26.2-14.2 33.4-16.2 5.7-1.7 23.3-5.4 28.5-6 1.7-.2 3.1-.5 3.2-.6.1 0 .8.2 1.7.5zm44.2 31.5c7.1 2.7 13.9 7.7 18.5 13.9 5.3 7.1 5.6 8.9 2.5 16-4.4 10.3-5.8 17.5-5.8 30.5.1 13.1 1.5 20.2 5.7 28.5 2.2 4.3 2.9 5 5.5 5 4.6 0 5.5-2.8 2.6-8.7-3.2-6.5-4.6-13.7-4.6-24.4v-9l4.3 2.9c4.4 3 13.1 6.7 22.9 9.8 6.4 2 8.8 1.1 8.8-3.2 0-2.7-2.9-4.5-10-6.4-8.1-2.1-18.5-7.7-21.4-11.5l-2.7-3.6 2-4.2c3.3-6.8 7.1-10.7 11.6-11.7 13.7-3.2 29.5 1.6 38.5 11.6 6.5 7.2 8.1 10.8 8.7 19.3 2 28.2-18.3 50.6-54.2 59.6-12.3 3.2-13.5 3.8-13.5 7.1 0 4 2.9 4.6 12.3 2.4 14.2-3.3 27.5-8.9 37-15.6l4.7-3.4v3.3c0 7.7 2.8 13.3 10.3 21 4 4 7.9 8.4 8.8 9.7 1.5 2.2 1.9 2.3 4.3 1.2 5.2-2.3 2.6-9.5-6.3-17-6.5-5.5-8.5-10.7-7.9-20.4.4-5.8 1-8.1 3.2-11.3 1.6-2.2 3.9-6.1 5.2-8.8 1.3-2.6 3-4.7 3.7-4.7 2.8 0 13.9 6.2 18.2 10.1 8.4 7.8 12.5 17.5 12.5 30 0 15.7-10.2 30.6-24.8 36.2-2.3.9-14.6 3.9-27.3 6.7-33.6 7.3-40.9 6.9-53.8-2.9-5.4-4.1-10.7-13.2-12.7-21.7-1.9-8.1-3.1-9.3-7-7.6-1.9.9-2.4 1.9-2.4 5 0 4.8 3 13.6 6.5 19.2 1.4 2.3 2.5 4.3 2.3 4.5-.8.8-15.1-9-21-14.4-3.6-3.3-7.3-6.1-8.1-6.1-.7 0-2.2.9-3.1 1.9-1.6 1.7-1.6 2.2-.2 4.8 4.1 7.7 25.5 21.9 40.6 26.8 3 1 5.1 2 4.5 2.2-.5.1-13.5 3-28.8 6.3l-27.8 6-5.7-2.9c-3.1-1.6-8.4-3.7-11.7-4.7-8.3-2.5-8.6-2.8-7.9-8.3 1.3-9.5 4.7-14.4 14.3-20.5 7.9-5.1 9-6.4 9.7-10.8.5-2.5.1-3.8-1.4-5.2-2.8-2.5-5.8-1.3-7.2 3-.9 2.7-2.5 4.2-6.6 6.5-10.6 6-17.4 16.5-17.4 26.7v4.4l-4.9-.7c-6.3-.9-24.7-.9-33.1-.1-3.6.4-11.7 1.6-18 2.7-8.8 1.5-11.9 2.4-13.2 4-1.4 1.6-1.5 2.5-.7 4 1.6 3.1 2.8 3.2 14.5 1 23.9-4.4 40.3-4.9 56.8-1.5 7.7 1.5 15.6 4.3 15.6 5.4 0 .4-1.9 1-4.2 1.4-2.4.4-29.2 6.1-59.8 12.7-30.5 6.6-57.3 12.3-59.6 12.6-9.7 1.3-22.5-4-30.9-12.8-12.4-13-14.8-31.7-5.9-46.6 4.6-7.6 6.3-9.3 10.8-10.3 3.5-.8 3.7-.7 5.2 2.8 3.7 8.7 5.5 18.8 6 32.7.5 14.1 1.6 18.7 4.5 19.3 2.7.5 5.2-2.7 4.4-5.7-.4-1.4-.8-8.9-1.1-16.6-.4-14.3-1.3-19.9-4.4-28.6-1-2.7-1.5-4.9-1.2-5 5.8-.9 18.1 3 26.1 8.1 6.8 4.4 8.2 4.7 10.1 2.5 2.1-2.5.3-6.1-4.7-9.3-9.8-6.3-19.1-9.1-32.8-10.1l-9-.6-1.1-3.5c-3.3-10-2.3-20.7 2.8-30.2 5.4-10.2 14-17.1 25-20.3 9-2.6 10-2.1 11.5 5.4 2.9 14.4 16.6 35.1 23.2 35.1 3 0 5.1-1.6 5.1-3.8 0-.8-2.4-3.8-5.3-6.7-12.5-12.5-17.7-31.4-14.7-53 1.3-8.8 2-10.1 8.1-14.9 5.9-4.5 12.8-7.3 20.3-8.2 4.8-.6 6-.3 11.7 2.7 7.4 4 15.6 11.2 21.1 18.7 3.2 4.4 4.4 5.3 6.5 5 3.7-.4 5.1-3 3.3-6.3-2.9-5.4-13.3-16.6-19.5-21.1l-6.5-4.6 2.7-5c3.8-7 10.5-13.3 18.1-17 8.7-4.3 20.7-5.1 29.7-1.9 8.4 2.9 15.2 11.1 21.9 26.3l2.5 5.7-4.4 2.1c-11.4 5.5-20.5 23.1-20.5 39.4v8.3l-5.2 1.6c-10 3.1-18.2 3.1-29.1.3-10.4-2.8-18.6-3.3-20.5-1.4-1.5 1.5-1.5 5.1 0 6.6.7.7 3.8 1.2 6.9 1.2 3.2 0 8.7 1 12.5 2.2 8.3 2.7 21 2.9 29.7.6l5.7-1.6v3.6c0 5.8-1.8 10.8-5.6 15.7-4 5.2-3.8 8.1.4 9.2 2.2.5 3.2 0 6.3-3.6 6.2-6.9 7.4-12 7.5-31.6 0-19.7 1.1-24.7 7.3-34.2 3.9-6 9.5-10.4 11.1-8.6 2.1 2.3 4.4 15.6 4.5 25.5.1 11.4.7 13.2 4.6 12.6 10.4-1.4 2.6-46.1-12.3-70.7-3.7-6-3.8-6.4-2.2-8.2 2.7-3 11.9-6.9 18.2-7.7 7.3-1 13.4-.4 19.8 1.9zm-117 234.4c25 4.8 39.4 21.4 39.4 45.4 0 11.9-5.2 22.3-14.5 28.6l-5.4 3.8 3.5 1.7c16.6 8.5 25 28.8 19.9 48.3-4.3 16.6-15.2 26.6-35 32.4-5.2 1.5-12.1 1.7-53.7 2.1l-47.8.3V343h42.9c33.9 0 44.6.3 50.7 1.5zm70.8 6.2c1.4 4.3 9.7 30.1 18.6 57.3 8.8 27.2 16.3 50.2 16.6 51 .3.8 9.5-24.8 20.3-57l19.8-58.5h20.5l20.1 58.2c11.1 32 20.3 58 20.6 57.7.2-.2 8.6-26.3 18.6-57.9 10-31.7 18.4-57.8 18.7-58.1.3-.2 8.1-.3 17.5-.2l16.9.3-29.3 81.5c-16.1 44.8-29.3 81.6-29.3 81.7 0 .2-6 .3-13.2.3h-13.3l-10.3-26.3c-5.6-14.4-14-37.5-18.6-51.2-5.4-16.2-8.6-24.4-9.1-23.3-.4.9-4.1 12.4-8.4 25.5-4.2 13.1-12.2 35.4-17.7 49.6l-9.9 25.7-13.3-.2-13.4-.3-27.4-75c-15.1-41.3-28.5-78-29.9-81.8L213 343h34.8l2.6 7.7z"/><path d="M116 390v19.1l28.8-.3c28.3-.3 28.8-.3 33.7-2.8 7.3-3.6 9.8-7.9 9.3-15.7-.5-7.6-3.9-12.5-11.4-16.3-4.8-2.5-5.3-2.5-32.6-2.8l-27.8-.3V390zM116 457.1v21l29.3-.4c30.4-.3 33.5-.7 39.8-5 11.4-7.6 10.5-22.6-1.8-30.5-8.4-5.4-13.8-6.2-42-6.2H116v21.1z"/></svg>